<svg 
          width="263.6722106933594" 
          height="273.4378662109375" fill="none" 
          xmlns="http://www.w3.org/2000/svg">
          <path d="M 167.9689645389725 105.4688838021996 C 193.35962272733659 105.4688838021996 208.98465210598204 68.35947120935349 208.98465210598204 44.921938888520735 C 208.98465210598204 25.390662730596627 199.21901398302515 1.953125753144767 179.68773773711138 1.953125753144767 C 154.2970795487473 1.953125753144767 138.67205017010184 39.062547659229104 138.67205017010184 62.500079980061855 C 138.67205017010184 82.03135613798597 148.43768829305873 105.4688838021996 167.9689645389725 105.4688838021996 L 167.9689645389725 105.4688838021996 Z M 93.7501297056814 105.4688838021996 C 113.28140595159518 105.4688838021996 123.04704407455205 82.03135613798597 123.04704407455205 62.500079980061855 C 123.04704407455202 37.109421906084336 107.4220146959066 0 82.03135650754253 0 C 62.50008026162875 0 52.73444679529101 23.437527664213643 52.73444679529101 42.96880382213775 C 50.78131914159576 68.35946189611528 66.40634342706403 105.4688838021996 93.7501297056814 105.4688838021996 L 93.7501297056814 105.4688838021996 Z M 238.2815664748527 85.93761695751371 C 212.8909082864886 85.93761695751371 195.3127624591377 121.0939131104533 195.3127624591377 146.48457118443082 C 195.3127624591377 164.06271926090062 203.12527714846044 181.6408719939895 220.7034253041209 181.6408719939895 C 246.094083492485 181.6408719939895 263.6722106933594 146.4845665278117 263.6722106933594 121.09390845383417 C 263.6722106933594 103.51576037736439 253.90658770441468 85.93761695751371 238.2815664748527 85.93761695751371 L 238.2815664748527 85.93761695751371 Z M 68.35947151731732 146.48457118443082 C 68.35947151731732 121.0939131104533 48.828190614784425 85.93761695751371 25.390658188364075 85.93761695751371 C 7.812510032703596 85.93761695751371 0 103.51576037736439 0 121.09390845383417 C 0 146.4845665278117 19.53127624591377 181.6408719939895 42.96880867233412 181.6408719939895 C 60.5469568279946 181.6408719939895 68.35947151731732 164.06271926090062 68.35947151731732 146.48457118443082 Z M 130.85954712232694 142.57831967814127 C 91.7969946304994 142.57831967814127 39.06255714844667 205.078395001584 39.06255714844667 248.04720348034087 C 39.06255714844667 267.578479638265 52.734450287755344 273.4378662109375 68.35947151731732 273.4378662109375 C 91.79700394373766 273.4378662109375 109.37514278615988 257.81286018577936 130.85954712232694 257.81286018577936 C 150.39082336824072 257.81286018577936 167.9689715239012 273.4378662109375 189.45337586006826 273.4378662109375 C 205.07839708963024 273.4378662109375 222.65654175282637 269.5316077197193 222.65654175282637 248.04720348034087 C 222.65654175282637 205.078395001584 169.9220996141545 142.57831967814127 130.85954712232694 142.57831967814127 L 130.85954712232694 142.57831967814127 Z" fill="rgb(65.0000037252903,105.00000134110451,225.00000178813934)"/>
        </svg>