<svg width="24" height="24" viewBox="0 0 24 24" fill="none" xmlns="http://www.w3.org/2000/svg">
<path d="M5.92499 19.5376C3.37499 17.8876 2.36249 11.4751 3.18749 8.5876C3.78749 6.4126 6.11249 3.2251 8.21249 2.4001C9.97499 1.6876 14.025 1.6876 15.75 2.4001C17.85 3.2251 20.175 6.4126 20.775 8.5876C21.6 11.5126 20.9625 17.8876 18.45 19.5376C13.125 22.9876 11.25 22.9876 5.92499 19.5376Z" fill="#F5D1AC"/>
<path d="M1.91249 9.2625C3.26249 12.225 3.59999 12.3375 4.87498 8.8125C5.54998 6.9375 5.06248 5.8125 5.88749 4.6125C6.33748 3.9375 7.34999 2.8125 7.34999 2.8125C7.34999 2.8125 -0.637515 3.6375 1.91249 9.2625Z" fill="#423223"/>
<path d="M5.32499 2.69993C3.29999 4.01243 -1.01251 3.48743 1.53749 9.07493C2.88749 12.0374 3.22499 12.1499 4.49999 8.62493C5.17499 6.74993 4.68749 5.62493 5.51249 4.42493C5.96249 3.74993 7.34999 2.81243 7.34999 2.81243C7.34999 2.81243 6.71249 1.79993 5.32499 2.69993Z" fill="#947151"/>
<path d="M22.0875 9.2249C20.7375 12.1874 20.4 12.2999 19.125 8.7749C18.45 6.8999 18.9375 5.7749 18.1125 4.5749C17.6625 3.8999 16.65 2.7749 16.65 2.7749C16.65 2.7749 24.6375 3.6374 22.0875 9.2249Z" fill="#423223"/>
<path d="M18.675 2.69993C20.7 4.01243 25.0125 3.48743 22.4625 9.07493C21.1125 12.0374 20.775 12.1499 19.5 8.62493C18.825 6.74993 19.3125 5.62493 18.4875 4.42493C18.0375 3.74993 16.65 2.81243 16.65 2.81243C16.65 2.81243 17.2875 1.79993 18.675 2.69993Z" fill="#947151"/>
<path d="M6.63751 13.7625C7.88015 13.7625 8.88751 12.7551 8.88751 11.5125C8.88751 10.2698 7.88015 9.26245 6.63751 9.26245C5.39487 9.26245 4.38751 10.2698 4.38751 11.5125C4.38751 12.7551 5.39487 13.7625 6.63751 13.7625Z" fill="white"/>
<path d="M6.07501 13.2C7.00699 13.2 7.76251 12.4444 7.76251 11.5125C7.76251 10.5805 7.00699 9.82495 6.07501 9.82495C5.14303 9.82495 4.38751 10.5805 4.38751 11.5125C4.38751 12.4444 5.14303 13.2 6.07501 13.2Z" fill="#989898"/>
<path d="M17.3625 13.7625C18.6051 13.7625 19.6125 12.7551 19.6125 11.5125C19.6125 10.2698 18.6051 9.26245 17.3625 9.26245C16.1198 9.26245 15.1125 10.2698 15.1125 11.5125C15.1125 12.7551 16.1198 13.7625 17.3625 13.7625Z" fill="white"/>
<path d="M17.925 13.2C18.857 13.2 19.6125 12.4444 19.6125 11.5125C19.6125 10.5805 18.857 9.82495 17.925 9.82495C16.993 9.82495 16.2375 10.5805 16.2375 11.5125C16.2375 12.4444 16.993 13.2 17.925 13.2Z" fill="#989898"/>
<path d="M8.13751 18.3L9.86251 20.1375C10.9125 21.225 13.05 21.225 14.1 20.1375L15.8625 18.3L14.0625 16.425H9.93751L8.13751 18.3Z" fill="#7D644B"/>
<path d="M12 14.8501C12 14.8501 10.1625 17.4751 10.3875 18.7126C10.6875 20.5126 13.275 20.5126 13.6125 18.7126C13.8375 17.4751 12 14.8501 12 14.8501Z" fill="#F15A61"/>
<path d="M12 19.3875L12.4125 16.875H11.5875L12 19.3875Z" fill="#BA454B"/>
<path d="M10.125 15.5625H13.875V17.2875H10.125V15.5625Z" fill="#423223"/>
<path d="M17.925 15.9751L15.2625 13.1626C13.65 11.4751 10.35 11.4751 8.73751 13.1626L6.07501 15.9751C5.32501 16.7626 5.32501 18.0751 6.07501 18.8626C6.82501 19.6501 8.06251 19.6501 8.81251 18.8626L11.475 16.0501C11.7375 15.7876 12.225 15.7876 12.4875 16.0501L15.15 18.8626C15.9 19.6501 17.1375 19.6501 17.8875 18.8626C18.7125 18.0751 18.7125 16.7626 17.925 15.9751Z" fill="#947151"/>
<path d="M9.78751 13.3876C9.78751 12.4126 10.7625 12.2251 12 12.2251C13.2375 12.2251 14.2125 12.4126 14.2125 13.3876C14.2125 14.1751 12.45 14.8501 12 14.8501C11.55 14.8501 9.78751 14.1376 9.78751 13.3876ZM8.74126 14.6296L9.11213 14.2576L9.48376 14.6285L9.11288 15.0001L8.74126 14.6296ZM7.85513 15.6792L8.22601 15.3076L8.59726 15.6785L8.22676 16.0497L7.85513 15.6792ZM9.04688 16.0362L9.41776 15.6646L9.78938 16.0351L9.41888 16.4071L9.04688 16.0362ZM14.5136 14.6206L14.8856 14.2501L15.2561 14.6217L14.8845 14.9926L14.5136 14.6206ZM15.423 15.6608L15.795 15.29L16.1655 15.6616L15.7939 16.0325L15.423 15.6608ZM14.2301 16.0542L14.6018 15.6837L14.9726 16.055L14.601 16.4262L14.2301 16.0542Z" fill="#989898"/>
</svg>
