<svg width="24" height="24" viewBox="0 0 24 24" fill="none" xmlns="http://www.w3.org/2000/svg">
<g clip-path="url(#clip0_35_288)">
<path d="M1.68749 0.824968C0.374992 1.64997 0.412492 10.3875 1.98749 13.2L11.775 7.19997C10.275 4.53747 2.92499 0.0749676 1.68749 0.824968Z" fill="#989898"/>
<path d="M3.56251 4.23749C3.00001 4.57499 2.73751 10.3125 3.71251 12.1125L9.97501 8.28749C9.07501 6.56249 4.08751 3.93749 3.56251 4.23749Z" fill="#F7A4A4"/>
<path d="M22.3125 0.824968C23.625 1.64997 23.5875 10.3875 22.05 13.2L12.2625 7.19997C13.725 4.53747 21.075 0.0749676 22.3125 0.824968Z" fill="#989898"/>
<path d="M20.4375 4.23749C21 4.57499 21.2625 10.3125 20.2875 12.1125L13.9875 8.28749C14.925 6.56249 19.9125 3.93749 20.4375 4.23749Z" fill="#F7A4A4"/>
<path d="M11.925 4.9126C1.76251 4.9126 0.825012 12.1876 0.825012 16.3126C0.825012 18.0001 5.77501 23.2501 11.925 23.2501C18.075 23.2501 23.025 18.0001 23.025 16.3126C23.025 12.1876 22.0875 4.9126 11.925 4.9126Z" fill="#989898"/>
<path d="M9.07499 14.5125C9.07499 14.5125 7.91249 16.3125 5.77499 15.75C3.63749 15.1875 3.52499 13.05 3.52499 13.05C3.52499 13.05 4.68749 11.25 6.82499 11.8125C8.99999 12.375 9.07499 14.5125 9.07499 14.5125Z" fill="#BFFFAB"/>
<path d="M8.85001 13.5749C8.85001 13.5749 7.83751 14.6999 6.41251 14.6999C4.87501 14.6999 3.97501 12.4874 3.97501 12.4874C3.97501 12.4874 4.98751 11.3249 6.82501 11.7749C8.51251 12.2249 8.85001 13.5749 8.85001 13.5749Z" fill="#93E67F"/>
<path d="M7.27501 13.5374C7.27501 16.0124 6.07501 16.0124 6.07501 13.5374C6.11251 11.0624 7.27501 11.0624 7.27501 13.5374Z" fill="#989898"/>
<path d="M14.775 14.5125C14.775 14.5125 15.9375 16.3125 18.075 15.75C20.2125 15.1875 20.325 13.05 20.325 13.05C20.325 13.05 19.1625 11.25 17.025 11.8125C14.85 12.375 14.775 14.5125 14.775 14.5125Z" fill="#BFFFAB"/>
<path d="M14.9625 13.5749C14.9625 13.5749 15.975 14.6999 17.4 14.6999C18.9375 14.6999 19.8375 12.4874 19.8375 12.4874C19.8375 12.4874 18.825 11.3249 16.9875 11.7749C15.3 12.2249 14.9625 13.5749 14.9625 13.5749Z" fill="#93E67F"/>
<path d="M16.5375 13.5374C16.5375 16.0124 17.7375 16.0124 17.7375 13.5374C17.7375 11.0624 16.5375 11.0624 16.5375 13.5374Z" fill="#989898"/>
<path d="M15.15 16.5C14.175 15.75 13.125 13.2375 11.925 13.2375C10.725 13.2375 9.63751 15.75 8.66251 16.5C7.12501 17.7 3.03751 19.05 3.03751 19.05C3.03751 19.05 7.38751 22.875 11.8875 22.875C16.3875 22.875 20.7375 19.05 20.7375 19.05C20.775 19.05 16.6875 17.7 15.15 16.5Z" fill="white"/>
<path d="M11.925 21.375C12.2771 21.375 12.5625 20.9553 12.5625 20.4375C12.5625 19.9197 12.2771 19.5 11.925 19.5C11.5729 19.5 11.2875 19.9197 11.2875 20.4375C11.2875 20.9553 11.5729 21.375 11.925 21.375Z" fill="#FF94A4"/>
<path d="M15.075 19.9124C14.7 20.1374 14.2875 20.2125 13.9125 20.2125C13.5 20.175 13.125 20.0625 12.825 19.8C12.525 19.575 12.3 19.2375 12.225 18.825L11.925 17.1375L11.625 18.825C11.55 19.2 11.325 19.5375 11.025 19.8C10.725 20.0625 10.3125 20.175 9.93751 20.2125C9.52501 20.2125 9.11251 20.1374 8.77501 19.9124C8.40001 19.6874 8.10001 19.35 7.95001 18.9C7.98751 19.3875 8.21251 19.8375 8.58751 20.175C8.96251 20.5125 9.45001 20.7 9.90001 20.7C10.425 20.7375 10.9125 20.5874 11.325 20.2874C11.55 20.1374 11.7375 19.9125 11.8875 19.6875C12.0375 19.9125 12.225 20.1374 12.45 20.2874C12.8625 20.5874 13.3875 20.7375 13.875 20.7C14.3625 20.6625 14.85 20.475 15.225 20.175C15.6 19.8375 15.8625 19.3875 15.8625 18.9C15.75 19.3125 15.45 19.6874 15.075 19.9124Z" fill="#989898"/>
<path d="M13.425 16.8C13.125 16.425 12.1875 16.3875 11.925 16.3875C11.6625 16.3875 10.725 16.425 10.425 16.8C10.2 17.0625 10.3875 17.7375 10.95 18.3C11.325 18.675 11.6625 18.7875 11.925 18.7875C12.1875 18.7875 12.5625 18.675 12.9 18.3C13.4625 17.7 13.65 17.0625 13.425 16.8Z" fill="#989898"/>
</g>
<defs>
<clipPath id="clip0_35_288">
<rect width="24" height="24" fill="white"/>
</clipPath>
</defs>
</svg>
